<!-- Instagram Like / Heart Icon (outline) -->
<svg width="24" height="24" viewBox="0 0 24 24" fill="none" xmlns="http://www.w3.org/2000/svg">
  <path d="M16.792 3.904A4.989 4.989 0 0 1 21.5 9.122c0 3.072-2.652 4.959-5.197 7.222-2.512 2.243-3.865 3.469-4.303 3.752-.477-.309-2.143-1.823-4.303-3.752C5.141 14.072 2.5 12.167 2.5 9.122a4.989 4.989 0 0 1 4.708-5.218 4.21 4.21 0 0 1 3.675 1.941c.84 1.175.98 1.763 1.12 1.763s.278-.588 1.11-1.766a4.17 4.17 0 0 1 3.679-1.938Z" stroke="currentColor" stroke-width="2"/>
</svg>
