<!-- Instagram Messages Icon (paper plane) -->
<svg width="24" height="24" viewBox="0 0 24 24" fill="none" xmlns="http://www.w3.org/2000/svg">
  <path d="M22.987 1.988a.498.498 0 0 0-.535-.446 62.668 62.668 0 0 0-16.337 4.938A3.53 3.53 0 0 0 4.51 8.508L1.485 19.92a.5.5 0 0 0 .616.616l11.412-3.024a3.53 3.53 0 0 0 2.028-1.605 62.668 62.668 0 0 0 4.938-16.337.498.498 0 0 0-.492-.582Z" stroke="currentColor" stroke-width="2" stroke-linejoin="round"/>
  <path d="M10.5 13.5L22 2" stroke="currentColor" stroke-width="2" stroke-linecap="round"/>
</svg>
